/* XPM */
static char *c9c7fb84f6194c51f88121904122a44bo0IgL9zmG1twrwTC[] = {
/* columns rows colors chars-per-pixel */
"100 100 19 1 ",
"  c None",
". c black",
"X c #030202",
"o c #6A3020",
"O c #753422",
"+ c #177D18",
"@ c #706967",
"# c #A20A0A",
"$ c #843722",
"% c #DA0303",
"& c #97540E",
"* c #26E228",
"= c #918F67",
"- c #F0A75A",
"; c #918784",
": c #978B87",
"> c #BCBA96",
", c #EFBB84",
"< c #E4D5D1",
/* pixels */
"                                                                                                    ",
"                                                                                                    ",
"                                                                                                    ",
"                                                                                                    ",
"                                                                                                    ",
"                                                                                                    ",
"                                                                                                    ",
"                                                                                                    ",
"                                                                                                    ",
"                                                                                                    ",
"                                                                                                    ",
"                                                                                                    ",
"                                                                                                    ",
"                                                                                                    ",
"                                                                                                    ",
"                                                                                                    ",
"                                                                                                    ",
"                                                                                                    ",
"                                                                                                    ",
"                                                                                                    ",
"                                                                                                    ",
"                                                                                                    ",
"                                                                                                    ",
"                                     ....                                                           ",
"                                     .OO.  ......                                                   ",
"                                   ...OO...OOOOOO...                                                ",
"                                   .OOOOOOOOOOOOOOO.                                                ",
"                                   .OOOOO$$$$$$$$$.                                                 ",
"                                    .OO.$$$.$$$.$$$.                                                ",
"                                   .OOOO..$$..$$.$$.                                                ",
"                                   .OOO.--..--..-...                                                ",
"                                   .OOO.-,,,,,,,,,.                                                 ",
"                                   ..OO.-...,,...,&                                                 ",
"                                  &--.O.,,,,,,,,,,&&                                                ",
"                                  &--...,..,,,..,,&-&                                               ",
"                                  &-----,..,,,..,,&-&                                               ",
"                                   &----,,,,,,,,,,--&                                               ",
"                                    ..oO,,,,,,,,,,,&                                                ",
"                                   .oooO,,,,,,,,,,O.                                                ",
"                                   .oooO,,,OOOOO,,O.                                                ",
"                                    .ooO,,,O,,,O,O.                                                 ",
"                                    .ooOOOOO-O-OOO.                                                 ",
"                                     .ooOOOOOOOOO.                                                  ",
"                                      ..ooOOOOO..                                                   ",
"                                        .......                                                     ",
"                                     ....----X....                                                  ",
"                                   ..;.<<.--X<<.<<..                                                ",
"                                  .;;<.<<<XX<<<.<<<<.                                               ",
"                                  .;<<...<<X<...<<<<.                                               ",
"                                 .;;<<<<<<<X<<<<<<<<<.                                              ",
"                                 .;;<<<<<<<X<<<<<<<<<.                                              ",
"                                .;;<<.;<<<<X<<<<.;<<<<.                                             ",
"                                .;;<<.;<<<<X<<<<.;<<<<.                                             ",
"                                .;;<.;;<<X<X<<<<..;<<<<.                                            ",
"                                .....;;<<<<X<<<<. .;<<<<..                                          ",
"                                &-,,&;;<<<<X<<<<.  .;<<<<.                                          ",
"                                &-,,&;;<<X<X<<<<.   .;<..&&                                         ",
"                                &-,,&;;<<<<<<<<<.    ..,,,,&                                        ",
"                                &-,,&;;<<<<<<<<<.     &--,,,&                                       ",
"                                &-&&&;;<<X<<<<<<.      &&-&,&                                       ",
"                                &-,,,&;<<<<<<<<<.        & &&                                       ",
"                                &-,,,&;<<<<<<<<<.        ....                                       ",
"                                 &-,,&;<<<<<<<<<.        .%#.                                       ",
"                                  &&&............        .%#.                                       ",
"                                    .@@:::::::::.        ....                                       ",
"                                    .@@:::..@@@:.        .>=.                                       ",
"                                    .@@::.  .@@:.        .>=.                                       ",
"                                    .@@::.  .@@:.        ....                                       ",
"                                    .@@::.  .@@:.       .****.                                      ",
"                                    .@@::.  .@@:.      .**+***.                                     ",
"                                    .@@::.  .@@:.     .*++++++*.                                    ",
"                                    .@@::.  .@@:.     .+......*.                                    ",
"                                    .@....  .@...     .+.>>==.*.                                    ",
"                                    ..@@::. ..@@:.    .+......*.                                    ",
"                                    .@@@@@. .@@@@.    .+++++++*.                                    ",
"                                    ....... ......     ........                                     ",
"                                                                                                    ",
"                                                                                                    ",
"                                                                                                    ",
"                                                                                                    ",
"                                                                                                    ",
"                                                                                                    ",
"                                                                                                    ",
"                                                                                                    ",
"                                                                                                    ",
"                                                                                                    ",
"                                                                                                    ",
"                                                                                                    ",
"                                                                                                    ",
"                                                                                                    ",
"                                                                                                    ",
"                                                                                                    ",
"                                                                                                    ",
"                                                                                                    ",
"                                                                                                    ",
"                                                                                                    ",
"                                                                                                    ",
"                                                                                                    ",
"                                                                                                    ",
"                                                                                                    "
};
