/* XPM */
static char *ac6937b97621440fe775d3727bdb2e36iqZeCt2Dh9cM4jfc[] = {
/* columns rows colors chars-per-pixel */
"38 51 6 1 ",
"  c black",
". c #006207",
"X c #174300",
"o c #4B1001",
"O c #5C2600",
"+ c white",
/* pixels */
"                                      ",
"            ......   ......           ",
"            ......   ......           ",
"            ......   ......           ",
"         .....................        ",
"         .....................        ",
"         .....................        ",
"         ..................           ",
"         ..................           ",
"         ..................           ",
"   ......XXX...XXXXXX...XXX......     ",
"   ......XXX...XXXXXX...XXX......     ",
"   ......XXX...XXXXXX...XXX......     ",
"............XXX......XXX............  ",
"............XXX......XXX............  ",
"............XXX......XXX............  ",
".........XXX............XXX.........  ",
".........XXX............XXX.........  ",
".........XXX............XXX.........  ",
"   ......XXX............XXX......     ",
"   ......XXX............XXX......     ",
"   ......XXX............XXX......     ",
"            oooooooooooo              ",
"            oooooooooooo              ",
"            oooooooooooo              ",
"               oooooo                 ",
"               oooooo                 ",
"               oooooo                 ",
"               OOOOOO                 ",
"               OOOOOO                 ",
"               OOOOOO                 ",
"               OOOOOO                 ",
"               OOOOOO                 ",
"               OOOOOO                 ",
"               OOOOOO                 ",
"               OOOOOO                 ",
"               OOOOOO                 ",
"               OOOOOO                 ",
"               OOOOOO                 ",
"               OOOOOO                 ",
"               OOOOOO                 ",
"               OOOOOO                 ",
"               OOOOOO                 ",
"            OOOOOOOOOOOO              ",
"            OOOOOOOOOOOO              ",
"            OOOOOOOOOOOO              ",
"         OOOOOOOOOOOOOOOOOO           ",
"         OOOOOOOOOOOOOOOOOO           ",
"         OOOOOOOOOOOOOOOOOO           ",
"                                      ",
"                                      "
};
